<svg width="36" height="36" viewBox="0 0 36 36" fill="none" xmlns="http://www.w3.org/2000/svg">
<circle cx="18" cy="18" r="18" fill="white"/>
<path d="M17.9539 10.2542C20.4748 10.2542 20.7498 10.2542 21.7581 10.3C22.6748 10.3458 23.1789 10.4833 23.4998 10.6208C23.9123 10.7583 24.2789 11.0333 24.5998 11.3083C24.9206 11.6292 25.1498 11.9958 25.2873 12.4083C25.4248 12.7292 25.5623 13.2333 25.6081 14.15C25.6539 15.1583 25.6539 15.4333 25.6539 17.9542C25.6539 20.475 25.6539 20.75 25.6081 21.7583C25.5623 22.675 25.4248 23.1792 25.2873 23.5C24.9664 24.325 24.3248 24.9667 23.4998 25.2875C23.1789 25.425 22.6748 25.5625 21.7581 25.6083C20.7498 25.6542 20.4748 25.6542 17.9539 25.6542C15.4331 25.6542 15.1581 25.6542 14.1498 25.6083C13.2331 25.5625 12.7289 25.425 12.4081 25.2875C11.9956 25.15 11.6289 24.875 11.3081 24.6C10.9873 24.2792 10.7581 23.9125 10.6206 23.5C10.4831 23.1792 10.3456 22.675 10.2998 21.7583C10.2539 20.75 10.2539 20.475 10.2539 17.9542C10.2539 15.4333 10.2539 15.1583 10.2998 14.15C10.3456 13.2333 10.4831 12.7292 10.6206 12.4083C10.7581 11.9958 11.0331 11.6292 11.3081 11.3083C11.6289 10.9875 11.9956 10.7583 12.4081 10.6208C12.7289 10.4833 13.2331 10.3458 14.1498 10.3C15.1581 10.2542 15.4789 10.2542 17.9539 10.2542ZM17.9539 8.55835C15.3873 8.55835 15.0664 8.55835 14.0581 8.60418C13.0498 8.65002 12.3623 8.78752 11.7664 9.06252C11.1706 9.29168 10.6206 9.65835 10.1623 10.1167C9.70394 10.575 9.29144 11.1708 9.06227 11.7667C8.83311 12.3625 8.64977 13.05 8.60394 14.0583C8.55811 15.0667 8.55811 15.3875 8.55811 17.9542C8.55811 20.5208 8.55811 20.8417 8.60394 21.85C8.64977 22.8583 8.78727 23.5458 9.06227 24.1417C9.29144 24.7375 9.65811 25.3333 10.1623 25.7917C10.6206 26.25 11.2164 26.6625 11.8123 26.8917C12.4081 27.1208 13.0956 27.3042 14.1039 27.35C15.1123 27.3958 15.4331 27.3958 17.9998 27.3958C20.5664 27.3958 20.8873 27.3958 21.8956 27.35C22.9039 27.3042 23.5914 27.1667 24.1873 26.8917C25.4706 26.3875 26.4331 25.425 26.9373 24.1417C27.1664 23.5458 27.3498 22.8583 27.3956 21.85C27.4414 20.8417 27.4414 20.5208 27.4414 17.9542C27.4414 15.3875 27.4414 15.0667 27.3956 14.0583C27.3498 13.05 27.2123 12.3625 26.9373 11.7667C26.7081 11.125 26.3414 10.575 25.8373 10.1167C25.3789 9.65835 24.7831 9.24585 24.1873 9.01668C23.5914 8.78752 22.9039 8.60418 21.8956 8.55835C20.8414 8.55835 20.5206 8.55835 17.9539 8.55835Z" fill="#2B2B39"/>
<path d="M17.9526 13.1416C15.2943 13.1416 13.1401 15.2958 13.1401 17.9541C13.1401 20.6124 15.2943 22.7666 17.9526 22.7666C20.611 22.7666 22.7651 20.6124 22.7651 17.9541C22.811 15.2958 20.6568 13.1416 17.9526 13.1416ZM17.9526 21.1166C16.211 21.1166 14.836 19.6958 14.836 17.9999C14.836 16.2583 16.2568 14.8833 17.9526 14.8833C19.6943 14.8833 21.0693 16.3041 21.0693 17.9999C21.1151 19.6958 19.6943 21.1166 17.9526 21.1166Z" fill="#2B2B39"/>
<path d="M22.9969 14.1042C23.6297 14.1042 24.1427 13.5912 24.1427 12.9583C24.1427 12.3255 23.6297 11.8125 22.9969 11.8125C22.3641 11.8125 21.8511 12.3255 21.8511 12.9583C21.8511 13.5912 22.3641 14.1042 22.9969 14.1042Z" fill="#2B2B39"/>
</svg>
