<svg width="106" height="106" viewBox="0 0 106 106" fill="none" xmlns="http://www.w3.org/2000/svg">
<g filter="url(#filter0_d_832_228)">
<rect x="20" y="12" width="66" height="66" rx="24" fill="url(#paint0_linear_832_228)"/>
</g>
<path fill-rule="evenodd" clip-rule="evenodd" d="M53.1933 45.7498C55.8369 45.7498 57.9799 43.6068 57.9799 40.9632C57.9799 38.3197 55.8369 36.1766 53.1933 36.1766C50.5498 36.1766 48.4067 38.3197 48.4067 40.9632C48.4067 43.6068 50.5498 45.7498 53.1933 45.7498Z" fill="white"/>
<path fill-rule="evenodd" clip-rule="evenodd" d="M57.3478 45.2141C56.2716 46.2402 54.8066 46.8716 53.1925 46.8716C51.5785 46.8716 50.1135 46.2402 49.0373 45.2141C48.852 45.1682 48.6667 45.1228 48.4867 45.0998C48.3067 45.0768 48.1326 45.0768 47.9702 45.1019C47.8084 45.1265 47.6588 45.1767 47.4842 45.2392C47.3095 45.3012 47.1103 45.376 46.8609 45.5255C46.612 45.6751 46.3124 45.8994 46.0261 46.2739C45.7393 46.6472 45.4653 47.1713 45.2159 47.7946C44.9665 48.4174 44.7422 49.1407 44.6177 49.8388C44.4933 50.5364 44.4682 51.21 44.4559 51.7207C44.4431 52.2319 44.4431 52.5812 44.4933 52.9177C44.5429 53.2542 44.6423 53.5779 44.8671 53.9022C45.0915 54.2264 45.4402 54.5506 45.8515 54.7996C46.2627 55.049 46.7365 55.2237 47.3848 55.3107C48.0327 55.3978 48.8552 55.3978 49.8523 55.3978H52.7439H53.1925H53.6412H56.5327C57.5299 55.3978 58.3524 55.3978 59.0002 55.3107C59.6486 55.2237 60.1223 55.049 60.5336 54.7996C60.9448 54.5506 61.2936 54.2264 61.5179 53.9022C61.7428 53.5779 61.8421 53.2542 61.8918 52.9177C61.942 52.5812 61.942 52.2319 61.9292 51.7207C61.9169 51.21 61.8918 50.5364 61.7673 49.8388C61.6429 49.1407 61.4186 48.4174 61.1692 47.7946C60.9197 47.1713 60.6458 46.6472 60.3589 46.2739C60.0727 45.8994 59.7731 45.6751 59.5242 45.5255C59.2747 45.376 59.0755 45.3012 58.9009 45.2392C58.7262 45.1767 58.5767 45.1265 58.4149 45.1019C58.2525 45.0768 58.0784 45.0768 57.8984 45.0998C57.7184 45.1228 57.5331 45.1682 57.3478 45.2141Z" fill="white"/>
<path fill-rule="evenodd" clip-rule="evenodd" d="M58.2932 43.3221C59.1439 44.0988 60.2765 44.5731 61.5192 44.5731C64.1621 44.5731 66.3046 42.4301 66.3046 39.7865C66.3046 37.143 64.1621 34.9999 61.5192 34.9999C59.8221 34.9999 58.3305 35.884 57.4814 37.2167C58.4395 38.0916 59.0408 39.3523 59.0408 40.7523C59.0408 41.6977 58.7663 42.5802 58.2932 43.3221Z" fill="white"/>
<path fill-rule="evenodd" clip-rule="evenodd" d="M47.7068 43.3221C46.8561 44.0988 45.7235 44.5731 44.4808 44.5731C41.8379 44.5731 39.6954 42.4301 39.6954 39.7865C39.6954 37.143 41.8379 34.9999 44.4808 34.9999C46.1779 34.9999 47.6695 35.884 48.5186 37.2167C47.5605 38.0916 46.9592 39.3523 46.9592 40.7523C46.9592 41.6977 47.2337 42.5802 47.7068 43.3221Z" fill="white"/>
<path fill-rule="evenodd" clip-rule="evenodd" d="M65.4095 44.2142C64.3649 45.2093 62.9549 45.8337 61.3975 45.8701L61.5695 46.0762C61.8564 46.4496 62.1305 46.9736 62.38 47.597C62.6295 48.2198 62.8539 48.9431 62.9784 49.6412C63.1029 50.3388 63.128 51.0124 63.1403 51.523C63.1532 52.0342 63.1532 52.3836 63.1029 52.7201C63.0532 53.0566 62.9539 53.3803 62.7289 53.7045C62.5617 53.946 62.3255 54.1879 62.0461 54.3979H64.5941C65.5917 54.3979 66.4145 54.3979 67.0626 54.3108C67.7112 54.2237 68.1851 54.0491 68.5965 53.7996C69.008 53.5507 69.3568 53.2265 69.5813 52.9022C69.8062 52.578 69.9056 52.2543 69.9553 51.9178C70.0055 51.5813 70.0055 51.2319 69.9927 50.7207C69.9804 50.2101 69.9553 49.5365 69.8308 48.8389C69.7063 48.1408 69.4819 47.4175 69.2324 46.7947C68.9828 46.1713 68.7087 45.6473 68.4218 45.2739C68.1354 44.8995 67.8357 44.6751 67.5867 44.5256C67.3372 44.376 67.1379 44.3012 66.9632 44.2393C66.7885 44.1768 66.6389 44.1266 66.477 44.102C66.3146 44.0769 66.1404 44.0769 65.9603 44.0999C65.7803 44.1228 65.5949 44.1682 65.4095 44.2142Z" fill="white"/>
<path fill-rule="evenodd" clip-rule="evenodd" d="M40.5905 44.2142C41.6351 45.2093 43.0451 45.8337 44.6025 45.8701L44.4305 46.0762C44.1436 46.4496 43.8695 46.9736 43.62 47.597C43.3705 48.2198 43.1461 48.9431 43.0216 49.6412C42.8971 50.3388 42.872 51.0124 42.8597 51.523C42.8468 52.0342 42.8468 52.3836 42.8971 52.7201C42.9468 53.0566 43.0461 53.3803 43.2711 53.7045C43.4383 53.946 43.6745 54.1879 43.9539 54.3979H41.4059C40.4083 54.3979 39.5855 54.3979 38.9374 54.3108C38.2888 54.2237 37.8149 54.0491 37.4035 53.7996C36.992 53.5507 36.6432 53.2265 36.4187 52.9022C36.1938 52.578 36.0944 52.2543 36.0447 51.9178C35.9945 51.5813 35.9945 51.2319 36.0073 50.7207C36.0196 50.2101 36.0447 49.5365 36.1692 48.8389C36.2937 48.1408 36.5181 47.4175 36.7676 46.7947C37.0172 46.1713 37.2913 45.6473 37.5782 45.2739C37.8646 44.8995 38.1643 44.6751 38.4133 44.5256C38.6628 44.376 38.8621 44.3012 39.0368 44.2393C39.2115 44.1768 39.3611 44.1266 39.523 44.102C39.6854 44.0769 39.8596 44.0769 40.0397 44.0999C40.2197 44.1228 40.4051 44.1682 40.5905 44.2142Z" fill="white"/>
<defs>
<filter id="filter0_d_832_228" x="0" y="0" width="106" height="106" filterUnits="userSpaceOnUse" color-interpolation-filters="sRGB">
<feFlood flood-opacity="0" result="BackgroundImageFix"/>
<feColorMatrix in="SourceAlpha" type="matrix" values="0 0 0 0 0 0 0 0 0 0 0 0 0 0 0 0 0 0 127 0" result="hardAlpha"/>
<feMorphology radius="2" operator="erode" in="SourceAlpha" result="effect1_dropShadow_832_228"/>
<feOffset dy="8"/>
<feGaussianBlur stdDeviation="11"/>
<feColorMatrix type="matrix" values="0 0 0 0 0.971137 0 0 0 0 0.341921 0 0 0 0 0.36709 0 0 0 0.3 0"/>
<feBlend mode="normal" in2="BackgroundImageFix" result="effect1_dropShadow_832_228"/>
<feBlend mode="normal" in="SourceGraphic" in2="effect1_dropShadow_832_228" result="shape"/>
</filter>
<linearGradient id="paint0_linear_832_228" x1="33.5" y1="12" x2="65" y2="78" gradientUnits="userSpaceOnUse">
<stop stop-color="#FF858A"/>
<stop offset="1" stop-color="#F04148"/>
</linearGradient>
</defs>
</svg>
